<svg xmlns="http://www.w3.org/2000/svg" viewBox="0 0 1600 1200" fill="none">
  <rect width="1600" height="1200" fill="#07111f"/>
  <circle cx="268" cy="222" r="224" fill="#0ea5e9" fill-opacity=".14"/>
  <circle cx="1388" cy="950" r="300" fill="#14b8a6" fill-opacity=".12"/>
  <circle cx="1178" cy="190" r="180" fill="#38bdf8" fill-opacity=".1"/>
  <path d="M190 820C190 791.281 213.281 768 242 768H1358C1386.72 768 1410 791.281 1410 820V926C1410 954.719 1386.72 978 1358 978H242C213.281 978 190 954.719 190 926V820Z" fill="white" fill-opacity=".06"/>
  <path d="M190 280C190 251.281 213.281 228 242 228H878C906.719 228 930 251.281 930 280V650C930 678.719 906.719 702 878 702H242C213.281 702 190 678.719 190 650V280Z" fill="url(#panel)"/>
  <path d="M986 318C986 289.281 1009.28 266 1038 266H1350C1378.72 266 1402 289.281 1402 318V650C1402 678.719 1378.72 702 1350 702H1038C1009.28 702 986 678.719 986 650V318Z" fill="white" fill-opacity=".08"/>
  <rect x="250" y="300" width="620" height="56" rx="18" fill="white" fill-opacity=".12"/>
  <rect x="250" y="390" width="540" height="24" rx="12" fill="#7dd3fc" fill-opacity=".65"/>
  <rect x="250" y="438" width="448" height="24" rx="12" fill="white" fill-opacity=".18"/>
  <rect x="250" y="486" width="510" height="24" rx="12" fill="white" fill-opacity=".18"/>
  <rect x="250" y="556" width="184" height="92" rx="24" fill="#0ea5e9" fill-opacity=".18"/>
  <rect x="454" y="556" width="184" height="92" rx="24" fill="white" fill-opacity=".1"/>
  <rect x="658" y="556" width="152" height="92" rx="24" fill="#14b8a6" fill-opacity=".18"/>
  <rect x="1042" y="332" width="304" height="72" rx="24" fill="white" fill-opacity=".1"/>
  <rect x="1042" y="442" width="304" height="200" rx="32" fill="white" fill-opacity=".06"/>
  <path d="M1086 572L1154 504L1210 548L1294 462" stroke="#7dd3fc" stroke-linecap="round" stroke-linejoin="round" stroke-width="18"/>
  <circle cx="1086" cy="572" r="18" fill="#7dd3fc"/>
  <circle cx="1154" cy="504" r="18" fill="#7dd3fc"/>
  <circle cx="1210" cy="548" r="18" fill="#7dd3fc"/>
  <circle cx="1294" cy="462" r="18" fill="#7dd3fc"/>
  <rect x="1042" y="820" width="304" height="56" rx="20" fill="#14b8a6" fill-opacity=".18"/>
  <rect x="270" y="842" width="210" height="18" rx="9" fill="white" fill-opacity=".28"/>
  <rect x="270" y="884" width="310" height="18" rx="9" fill="#7dd3fc" fill-opacity=".72"/>
  <rect x="620" y="842" width="182" height="18" rx="9" fill="white" fill-opacity=".2"/>
  <rect x="620" y="884" width="140" height="18" rx="9" fill="#5eead4" fill-opacity=".82"/>
  <defs>
    <linearGradient id="panel" x1="190" y1="228" x2="930" y2="702" gradientUnits="userSpaceOnUse">
      <stop stop-color="white" stop-opacity=".08"/>
      <stop offset="1" stop-color="white" stop-opacity=".04"/>
    </linearGradient>
  </defs>
</svg>
