<svg xmlns="http://www.w3.org/2000/svg" viewBox="0 0 64 64">
  <defs>
    <linearGradient id="bg" x1="0%" y1="0%" x2="100%" y2="100%">
      <stop offset="0%" stop-color="#0f172a" />
      <stop offset="100%" stop-color="#0ea5e9" />
    </linearGradient>
  </defs>
  <rect width="64" height="64" rx="18" fill="url(#bg)" />
  <path
    d="M18 20.5c0-1.38 1.12-2.5 2.5-2.5h20.2c.66 0 1.3.26 1.77.73l5.8 5.8c.47.47.73 1.1.73 1.77v17.2c0 1.38-1.12 2.5-2.5 2.5h-26c-1.38 0-2.5-1.12-2.5-2.5v-23Z"
    fill="#f8fafc"
    opacity=".96"
  />
  <path d="M40 18v8h8" fill="#bae6fd" />
  <path d="M24 31h16M24 37h16" stroke="#0f172a" stroke-linecap="round" stroke-width="3.5" />
  <circle cx="24" cy="44" r="3.5" fill="#14b8a6" />
  <path d="M31 44h9" stroke="#0f172a" stroke-linecap="round" stroke-width="3.5" />
</svg>
